<?xml version="1.0" encoding="utf-8"?>
<!-- Generator: Adobe Illustrator 19.1.0, SVG Export Plug-In . SVG Version: 6.00 Build 0)  -->
<svg version="1.1" id="Layer_1" xmlns="http://www.w3.org/2000/svg" xmlns:xlink="http://www.w3.org/1999/xlink" x="0px" y="0px"
   viewBox="0 0 11.8 11.8" style="enable-background:new 0 0 11.8 11.8;" xml:space="preserve">
<style type="text/css">
  .st0{fill:#0033A0;}
</style>
<path fill="#0033A0" d="M5.8,0.1C2.6,0.1,0,2.7,0,5.9c0,3.2,2.6,5.8,5.8,5.8s5.8-2.6,5.8-5.8C11.7,2.7,9.1,0.1,5.8,0.1z M8.5,6.3
      L4.7,10c-0.1,0.1-0.2,0.2-0.4,0.2c-0.1,0-0.3-0.1-0.4-0.2C3.8,9.8,3.8,9.4,4,9.2l3.4-3.3L4,2.8C3.8,2.6,3.7,2.2,3.9,2
      c0.2-0.2,0.5-0.2,0.8,0l3.8,3.5c0.1,0.1,0.2,0.2,0.2,0.4C8.7,6,8.6,6.2,8.5,6.3z"/>
</svg>
